Coordinates
version=1
nRows=5
nColumns=107
inDegrees=yes

Units are S.I. units (second, meters, Newtons, ...)
If the header above contains a line with 'inDegrees', this indicates whether rotational values are in degrees (yes) or radians (no).

endheader
time	sternoclavicular_r2	sternoclavicular_r3	unrotscap_r3	unrotscap_r2	acromioclavicular_r2	acromioclavicular_r3	acromioclavicular_r1	unrothum_r1	unrothum_r3	unrothum_r2	elv_angle	shoulder_elv	shoulder1_r2	shoulder_rot	elbow_flexion	pro_sup	deviation	flexion	proximal_distal_r1	proximal_distal_r3	cmc_flexion	cmc_abduction	mp_flexion	ip_flexion	mcp2_flexion	mcp2_abduction	pm2_flexion	md2_flexion	mcp3_flexion	mcp3_abduction	pm3_flexion	md3_flexion	mcp4_flexion	mcp4_abduction	pm4_flexion	md4_flexion	mcp5_flexion	mcp5_abduction	pm5_flexion	md5_flexion	bicpt_tx	bicpt_ty	bicpt_tz	bicpt2_tx	bicpt2_ty	bicpt2_tz	ptpt_tx	ptpt_ty	ptpt_tz	FCUpt_tx	FCUpt_ty	FCUpt_tz	EDCpt_tx	EDCpt_ty	EDCpt_tz	APLpt_tx	APLpt_ty	APLpt_tz	FPLpt_tx	FPLpt_ty	FPLpt_tz	FPLpt2_tx	FPLpt2_ty	FPLpt2_tz	PEC1pt2_tx	PEC1pt2_ty	PEC1pt2_tz	PEC1pt3_tx	PEC1pt3_ty	PEC1pt3_tz	PEC2pt2_tx	PEC2pt2_ty	PEC2pt2_tz	PEC2pt3_tx	PEC2pt3_ty	PEC2pt3_tz	PEC3pt2_tx	PEC3pt2_ty	PEC3pt2_tz	PEC3pt3_tx	PEC3pt3_ty	PEC3pt3_tz	DELT2pt2a_tx	DELT2pt2a_ty	DELT2pt2a_tz	DELT2pt2_tx	DELT2pt2_ty	DELT2pt2_tz	LAT1pt2_tx	LAT1pt2_ty	LAT1pt2_tz	LAT1pt3_tx	LAT1pt3_ty	LAT1pt3_tz	LAT2pt2_tx	LAT2pt2_ty	LAT2pt2_tz	LAT2pt3_tx	LAT2pt3_ty	LAT2pt3_tz	LAT3pt2_tx	LAT3pt2_ty	LAT3pt2_tz	LAT3pt3_tx	LAT3pt3_ty	LAT3pt3_tz
      0.76666667	     -0.32678028	      0.13840870	     -0.13840870	      0.32678028	     -0.06616636	      0.53473325	      0.24035891	     -0.24035891	     -0.53473325	      0.06616636	     99.18307621	     77.36813656	     -1.73107124	    -26.43276252	     28.96232937	     88.61532076	      0.40412233	     -0.39906032	      0.41477704	     -0.19953016	     25.61110566	    -20.87243617	     -5.96525349	      3.14357785	     58.46903910	      6.91928931	     49.37693928	     28.16793898	     71.57224435	     -2.01561360	     53.69218122	     34.40349521	     70.30605473	    -13.72301538	     63.21995246	     32.32052557	     70.48415618	    -14.33714147	     69.83174262	      5.25779855	      0.00085798	     -0.03091953	     -0.00483469	      0.01396174	     -0.01806776	     -0.00062338	      0.00100233	     -0.06913383	     -0.00718844	      0.01303949	     -0.18214820	      0.00015841	     -0.01063381	      0.00372259	     -0.00084305	      0.00027493	      0.00010997	      0.00054986	      0.00035191	      0.00105573	      0.00059385	     -0.00000102	     -0.00027592	     -0.00033110	      0.00253596	      0.00889734	      0.00618946	     -0.00829559	      0.02002977	     -0.01899819	      0.00253596	      0.00889734	      0.00618946	      0.00055877	      0.01856837	     -0.00975699	      0.00399315	      0.00494770	      0.01607708	      0.00000000	      0.00800702	      0.00000000	     -0.00726401	     -0.03356920	     -0.00660340	      0.01721158	     -0.00063724	     -0.00584195	     -0.00090263	      0.01512978	     -0.00618946	      0.00249298	      0.02183503	     -0.01805258	     -0.00606051	      0.01310961	     -0.00554472	     -0.01263681	      0.02768062	     -0.03099026	     -0.02372625	      0.01465698	     -0.00743594	     -0.01573153	      0.03197886	     -0.03872708
      0.80000000	     -0.32815686	      0.13899176	     -0.13899176	      0.32815686	     -0.06644509	      0.53698584	      0.24137144	     -0.24137144	     -0.53698584	      0.06644509	     98.81176267	     77.69405460	     -1.72459060	    -25.28961088	     28.86586198	     88.82624103	      0.40830654	     -0.36842143	      0.41767284	     -0.18421071	     23.13629611	    -18.83964475	     -8.74871581	      1.40527154	     55.29202347	      5.25312450	     42.73992580	     23.21526382	     68.01594898	     -3.07394296	     46.49360727	     30.80228677	     66.55041798	    -13.83900661	     56.62042381	     30.26221359	     66.76130113	    -14.39408437	     64.41447544	      5.20136554	      0.00085479	     -0.03090847	     -0.00483291	      0.01393863	     -0.01804155	     -0.00058645	      0.00098674	     -0.06914391	     -0.00720543	      0.01306390	     -0.18214089	      0.00016465	     -0.01065912	      0.00373434	     -0.00085013	      0.00026328	      0.00010531	      0.00052655	      0.00033699	      0.00101098	      0.00056868	      0.00000433	     -0.00028107	     -0.00033729	      0.00254664	      0.00893482	      0.00621553	     -0.00833054	      0.02011414	     -0.01907822	      0.00254664	      0.00893482	      0.00621553	      0.00056112	      0.01864659	     -0.00979809	      0.00400532	      0.00496854	      0.01610619	      0.00000000	      0.00807512	      0.00000000	     -0.00729461	     -0.03371062	     -0.00665992	      0.01664165	     -0.00059968	     -0.00534632	     -0.00090643	      0.01519352	     -0.00621553	      0.00250348	      0.02192701	     -0.01812863	     -0.00608604	      0.01316484	     -0.00556808	     -0.01269004	      0.02779723	     -0.03112081	     -0.02382620	      0.01471872	     -0.00746727	     -0.01579780	      0.03211357	     -0.03889022
      0.83333333	     -0.32818524	      0.13900378	     -0.13900378	      0.32818524	     -0.06645084	      0.53703228	      0.24139231	     -0.24139231	     -0.53703228	      0.06645084	     98.69849283	     77.70077256	     -1.72261367	    -25.41498673	     28.70196947	     89.03409082	      0.41045928	     -0.36741791	      0.41915158	     -0.18370896	     20.90373346	    -15.55632768	    -11.66771452	     -0.24885806	     51.87872595	      3.69782399	     37.66686005	     20.05335360	     63.57875295	     -4.26271935	     40.45506814	     28.09761452	     61.71335044	    -13.92612646	     51.07616333	     28.42149495	     61.64102200	    -14.44713313	     59.60090197	      5.16633685	      0.00084937	     -0.03088968	     -0.00482988	      0.01391575	     -0.01799703	     -0.00055000	      0.00097139	     -0.06915384	     -0.00722217	      0.01308797	     -0.18213368	      0.00017083	     -0.01068407	      0.00374593	     -0.00085714	      0.00026289	      0.00010516	      0.00052578	      0.00033650	      0.00100950	      0.00056785	      0.00000961	     -0.00027983	     -0.00033580	      0.00254686	      0.00893560	      0.00621607	     -0.00833126	      0.02011588	     -0.01907987	      0.00254686	      0.00893560	      0.00621607	      0.00056117	      0.01864820	     -0.00979894	      0.00400557	      0.00496897	      0.01610679	      0.00000000	      0.00807653	      0.00000000	     -0.00729525	     -0.03371353	     -0.00666108	      0.01670496	     -0.00060378	     -0.00539986	     -0.00090651	      0.01519483	     -0.00621607	      0.00250369	      0.02192890	     -0.01813020	     -0.00608657	      0.01316598	     -0.00556856	     -0.01269114	      0.02779963	     -0.03112350	     -0.02382826	      0.01471999	     -0.00746791	     -0.01579917	      0.03211635	     -0.03889359
      0.86666667	     -0.32736865	      0.13865791	     -0.13865791	      0.32736865	     -0.06628549	      0.53569603	      0.24079168	     -0.24079168	     -0.53569603	      0.06628549	     98.63642457	     77.50743666	     -1.72153037	    -26.15319496	     28.87748974	     89.16179536	      0.41473170	     -0.35236147	      0.42206418	     -0.17618073	     18.65943531	    -11.37956121	    -13.69323757	     -1.79384282	     49.77561810	      1.87125088	     30.70134606	     15.26572251	     59.29322983	     -5.72126467	     33.53562672	     24.64668150	     56.18876943	    -13.99961081	     45.12540211	     26.63505730	     55.50023063	    -14.49568242	     54.27289092	      5.11777770	      0.00085518	     -0.03090980	     -0.00483312	      0.01390164	     -0.01804471	     -0.00052758	      0.00096195	     -0.06915994	     -0.00723246	      0.01310276	     -0.18212924	      0.00017465	     -0.01069939	      0.00375306	     -0.00086145	      0.00025654	      0.00010262	      0.00051308	      0.00032837	      0.00098511	      0.00055413	      0.00001513	     -0.00027306	     -0.00032768	      0.00254052	      0.00891336	      0.00620060	     -0.00831053	      0.02006583	     -0.01903240	      0.00254052	      0.00891336	      0.00620060	      0.00055978	      0.01860180	     -0.00977456	      0.00399835	      0.00495661	      0.01608956	      0.00000000	      0.00803609	      0.00000000	     -0.00727709	     -0.03362964	     -0.00662753	      0.01707388	     -0.00062801	     -0.00571903	     -0.00090425	      0.01515702	     -0.00620060	      0.00249746	      0.02187434	     -0.01808508	     -0.00607142	      0.01313322	     -0.00555470	     -0.01265956	      0.02773046	     -0.03104606	     -0.02376897	      0.01468337	     -0.00744933	     -0.01575986	      0.03203643	     -0.03879681
      0.90000000	     -0.32298552	      0.13680142	     -0.13680142	      0.32298552	     -0.06539800	      0.52852362	      0.23756773	     -0.23756773	     -0.52852362	      0.06539800	     99.30437422	     76.46969379	     -1.73318829	    -30.12820064	     29.06846481	     89.23636444	      0.41654316	     -0.37737320	      0.42329004	     -0.18868660	     15.65070445	     -5.85497234	    -14.28801995	     -2.81587791	     47.97643918	      0.38381218	     25.03386591	     10.01859681	     54.05151949	     -7.19490599	     28.30018206	     21.67362229	     48.61271620	    -14.04107623	     40.66802405	     26.20733478	     45.09516123	    -14.53239503	     51.43288110	      5.19219499	      0.00086149	     -0.03093169	     -0.00483665	      0.01389339	     -0.01809659	     -0.00051448	      0.00095644	     -0.06916351	     -0.00723847	      0.01311140	     -0.18212665	      0.00017688	     -0.01070834	      0.00375723	     -0.00086398	      0.00026684	      0.00010674	      0.00053369	      0.00034156	      0.00102468	      0.00057638	      0.00002231	     -0.00025521	     -0.00030625	      0.00250651	      0.00879402	      0.00611758	     -0.00819926	      0.01979717	     -0.01877757	      0.00250651	      0.00879402	      0.00611758	      0.00055228	      0.01835274	     -0.00964369	      0.00395938	      0.00489024	      0.01599555	      0.00000000	      0.00782081	      0.00000000	     -0.00717966	     -0.03317938	     -0.00644885	      0.01893515	     -0.00076146	     -0.00756096	     -0.00089215	      0.01495409	     -0.00611758	      0.00246403	      0.02158147	     -0.01784294	     -0.00599013	      0.01295738	     -0.00548033	     -0.01249006	      0.02735918	     -0.03063039	     -0.02345073	      0.01448677	     -0.00734959	     -0.01554885	      0.03160750	     -0.03827736
